<?xml version="1.0" encoding="UTF-8" standalone="no"?>
<!-- Created with Inkscape (http://www.inkscape.org/) -->

<svg
   width="79.148727mm"
   height="81.108315mm"
   viewBox="0 0 79.148727 81.108315"
   version="1.1"
   id="svg5"
   xml:space="preserve"
   inkscape:version="1.2 (dc2aedaf03, 2022-05-15)"
   sodipodi:docname="LogoKCTraumsauferVektor_weiss.svg"
   xmlns:inkscape="http://www.inkscape.org/namespaces/inkscape"
   xmlns:sodipodi="http://sodipodi.sourceforge.net/DTD/sodipodi-0.dtd"
   xmlns="http://www.w3.org/2000/svg"
   xmlns:svg="http://www.w3.org/2000/svg"><sodipodi:namedview
     id="namedview7"
     pagecolor="#ffffff"
     bordercolor="#111111"
     borderopacity="1"
     inkscape:showpageshadow="0"
     inkscape:pageopacity="0"
     inkscape:pagecheckerboard="1"
     inkscape:deskcolor="#d1d1d1"
     inkscape:document-units="mm"
     showgrid="false"
     inkscape:zoom="1.829812"
     inkscape:cx="25.139195"
     inkscape:cy="116.4054"
     inkscape:window-width="1920"
     inkscape:window-height="1009"
     inkscape:window-x="-8"
     inkscape:window-y="-8"
     inkscape:window-maximized="1"
     inkscape:current-layer="g496"><inkscape:grid
       type="xygrid"
       id="grid603"
       originx="-6.3162043"
       originy="-2.2844467" /></sodipodi:namedview><defs
     id="defs2"><style
       id="style2152">.cls-1{fill:#f6b616;}.cls-2{fill:#fcfff5;}.cls-3{fill:#ddd;}.cls-4{fill:#ec9802;}.cls-5{fill:#f5c968;}.cls-6{fill:#afafaf;}.cls-7{fill:#161616;}</style></defs><g
     inkscape:label="Ebene 1"
     inkscape:groupmode="layer"
     id="layer1"
     transform="translate(-6.3162045,-2.2844467)"><g
       id="g496"
       transform="matrix(0.78195928,0,0,0.78195928,-100.24792,-50.674071)"
       style="fill:#ffffff"><path
         style="fill:#ffffff;stroke-width:0.295293"
         d="m 184.45856,165.65556 c -23.85526,-2.03803 -42.65433,-22.70879 -42.66585,-46.91381 -0.008,-15.59579 7.55267,-29.438777 20.81646,-38.116139 14.86741,-9.726491 34.70546,-9.650208 49.32346,0.189643 9.99523,6.72811 16.64669,16.81887 19.39536,29.424196 0.565,2.59109 0.65449,3.88971 0.65449,9.49793 0,5.60822 -0.0895,6.90685 -0.65449,9.49794 -2.03864,9.34919 -5.91887,16.77349 -12.12232,23.19445 -4.36094,4.51385 -8.1755,7.20652 -13.82916,9.7619 -6.02576,2.72357 -14.04326,4.05122 -20.91795,3.46389 z m 6.78214,-2.67028 c 6.14935,-0.70444 11.36976,-2.27853 16.70888,-5.03819 12.19909,-6.30542 20.78452,-17.53139 23.35037,-30.53207 0.61757,-3.12913 0.54875,-12.62082 -0.11383,-15.69762 -0.79242,-3.67974 -1.85385,-6.71765 -3.59463,-10.28823 -5.82502,-11.947905 -17.26559,-20.768771 -30.89324,-23.819216 -2.6833,-0.600636 -3.86845,-0.690156 -9.13675,-0.690156 -6.4746,0 -8.43154,0.2651 -13.39889,1.815122 -23.19576,7.238066 -36.19289,32.60896 -28.5227,55.67739 3.45173,10.38121 11.21782,19.26607 21.23708,24.29645 7.21985,3.62486 16.23648,5.20755 24.36371,4.27652 z"
         id="path404"
         sodipodi:nodetypes="scsssssssssssssssssss" /><path
         d="m 184.10852,129.97763 c -3.17579,-0.77314 -6.90084,-4.65791 -9.55637,-9.96615 -2.18619,-4.37003 -3.06477,-9.1473 -1.87952,-10.21994 0.70069,-0.63411 1.39364,-0.20561 1.15337,0.71321 -0.48313,1.84744 1.05021,7.56217 3.08044,11.48077 2.30509,4.44915 4.70222,6.75104 8.01789,7.69937 1.2678,0.3626 1.56574,0.52392 0.95595,0.51759 -0.48723,-0.006 -1.28452,-0.10625 -1.77176,-0.22485 z m 2.8603,-2.57531 c -0.37578,-0.0811 -1.25914,-0.70191 -1.963,-1.37951 -1.61778,-1.55738 -2.22612,-3.46935 -2.22612,-6.99658 0,-6.37955 3.35065,-13.56434 9.1419,-19.602956 5.69037,-5.933409 11.93638,-9.340699 17.17735,-9.370459 2.34034,-0.0133 3.48773,0.4984 4.38954,1.95755 1.51135,2.44542 0.41374,5.69616 -3.09185,9.156955 -3.85109,3.80189 -8.59102,5.54786 -10.33276,3.80612 -0.75419,-0.75418 -0.5357,-0.87916 1.5408,-0.88134 1.69275,-0.002 2.33671,-0.1677 4.27167,-1.10057 5.11681,-2.46689 8.53187,-7.421315 7.03866,-10.211395 -0.50216,-0.93832 -2.0656,-1.79862 -3.26358,-1.79584 -4.24228,0.0101 -9.95065,3.39236 -15.52498,9.199325 -4.55037,4.74029 -8.1457,10.67705 -9.44788,15.60073 -0.73557,2.78129 -0.70544,6.29564 0.0685,8.00015 2.37896,5.2389 10.25976,3.22832 18.5213,-4.72524 2.87654,-2.7693 2.47748,-1.78775 -0.48638,1.19634 -4.29245,4.32176 -9.27057,7.07156 -13.06295,7.21568 -1.13688,0.0432 -2.37452,0.0122 -2.75029,-0.069 z m -30.17497,-1.63021 c 0,-0.70113 3.4095,-7.56759 7.23208,-14.56481 1.33088,-2.43617 3.19603,-5.89111 4.14479,-7.67764 3.80797,-7.170475 7.1994,-12.254675 8.17453,-12.254675 0.97675,0 -1.55499,4.99269 -10.4818,20.670555 -2.26566,3.97908 -4.18276,7.36757 -4.26022,7.52998 -0.19958,0.41842 1.83016,-1.72052 6.20914,-6.54318 7.0665,-7.78248 17.74403,-17.276175 24.43984,-21.730145 6.22823,-4.142948 10.56677,-5.497044 13.24752,-4.134689 1.66593,0.846629 1.47698,1.223772 -0.52228,1.042488 -2.38664,-0.216417 -4.34012,0.28894 -8.17129,2.113881 -10.23739,4.87646 -23.69589,16.819995 -35.37455,31.392525 -2.11508,2.6392 -4.02384,4.79853 -4.24169,4.79853 -0.21784,0 -0.39607,-0.28926 -0.39607,-0.64282 z"
         style="fill:#ffffff;stroke-width:0.295293"
         id="path473" /><g
         aria-label="Traumsäufer"
         id="text490"
         style="font-size:16.8048px;font-family:Pristina;-inkscape-font-specification:Pristina;letter-spacing:-0.28472px;stroke-width:0.700199"><path
           d="m 165.01126,133.9489 q 0.0164,0.0738 0.0164,0.13129 0,0.23796 -0.2954,0.32002 -0.0164,0.008 -0.56618,0.0903 -1.45236,0.20513 -2.98679,0.33642 -0.64823,1.38672 -1.59186,4.4966 -0.86978,2.83909 -1.28005,4.74276 -0.13949,0.61541 -0.41027,0.61541 -0.17232,0 -0.69747,-0.18052 -0.18873,-0.0574 -0.20514,-0.22155 0.0164,0.16411 0.0164,-0.50053 0,-1.20621 0.38566,-2.19907 0.1477,-0.36925 0.32822,-0.36925 0.0492,0 0.18873,0.041 0.14769,0.0328 0.23795,0.041 0.22155,-0.83696 1.0503,-3.3068 0.93543,-2.78986 1.01748,-3.06064 -1.26364,0.0985 -2.52728,0.39386 -1.40314,0.34463 -1.83803,0.73028 -0.49232,0.4431 -0.49232,0.87799 0,0.46771 0.54156,1.46057 0.0574,0.10667 0.0574,0.19693 0,0.20514 -0.18872,0.20514 -0.13129,0 -0.23796,-0.1559 -0.64823,-0.92722 -0.84516,-1.44417 -0.1395,-0.36104 -0.19693,-1.04209 -0.0903,-1.00107 1.64929,-1.47698 2.26471,-0.61541 4.57045,-0.82055 0.26258,-0.53336 0.38566,-0.53336 0.18872,0 0.64002,0.41028 0.21335,0 1.32108,-0.16411 0.19694,-0.0328 0.40207,-0.28719 0.18052,-0.23796 0.86158,-0.27078 0.36924,-0.0164 0.50874,0.27898 0.0246,0.041 0.18052,0.66464 z"
           id="path428" /><path
           d="m 167.93487,138.24857 q 0,1.07492 -0.28719,2.05137 -0.0903,0.29539 -0.24616,0.29539 -0.11488,0 -0.50874,-0.32821 -0.19693,-0.16411 -0.0985,-0.46772 0.22976,-0.74669 0.22976,-1.19799 0,-0.15591 -0.0657,-0.15591 -0.0985,0 -0.32001,0.2954 -1.70674,2.22368 -2.5519,4.98892 -0.27078,0.87799 -0.45951,0.87799 -0.0739,0 -0.64823,-0.28719 -0.27898,-0.1395 -0.18872,-0.54156 0.64823,-2.8391 1.39493,-4.792 -0.60721,0.64003 -0.77132,0.87799 -0.0656,0.0985 -0.18052,0.0985 -0.13949,0 -0.13949,-0.12308 0,-0.0738 0.0656,-0.16411 0.40207,-0.48412 1.07492,-1.47698 0.20513,-0.36104 0.41027,-0.36104 0.1477,0 0.599,0.22975 0.25437,0.13129 0.0821,0.35283 -0.18053,0.23796 -0.68106,1.68213 -0.47592,1.40313 -0.65644,2.19906 1.11595,-2.48626 2.53549,-4.38992 0.27078,-0.36104 0.43489,-0.36104 0.1477,0 0.40207,0.19693 0.34463,0.041 0.43489,0.10667 0.13949,0.0985 0.13949,0.39386 z"
           id="path430" /><path
           d="m 173.45963,138.95424 q -0.75491,2.09239 -1.0421,3.51194 0.12308,-0.11488 0.32002,-0.35283 0.20513,-0.23796 0.25437,-0.27899 0.11487,-0.1477 0.24616,-0.1477 0.12308,0 0.12308,0.12308 0,0.0738 -0.0656,0.17232 -0.77132,1.14056 -1.02569,2.30574 -0.0739,0.32821 -0.22154,0.32821 -0.1395,0 -0.51695,-0.26257 -0.22155,-0.1477 -0.25437,-0.24617 -0.041,-0.0903 0,-0.36104 0.34463,-2.08418 0.86158,-3.4627 -0.71388,1.15697 -1.9447,2.5601 -1.07492,1.22262 -1.55083,1.55904 -0.34463,0.23796 -0.52515,0.23796 -0.1477,0 -0.4513,-0.23796 -0.43489,-0.26257 -0.43489,-0.72208 0,-0.0903 0.0164,-0.20514 0.1477,-1.21441 1.06671,-2.82268 0.91901,-1.61647 2.1088,-2.72421 0.38566,-0.36104 0.68926,-0.35284 0.2954,0.0164 1.12415,0.77952 0.0738,0.0656 0.0738,0.13949 0,0.13129 -0.17231,0.13129 -0.0657,0 -0.12309,-0.0246 -0.58258,-0.24617 -0.93542,0.0164 -0.77131,0.56617 -1.70674,1.99393 -1.08312,1.64109 -1.30467,2.95396 -0.008,0.0574 -0.008,0.10667 0,0.20514 0.16411,0.20514 0.27898,0 0.66464,-0.38566 0.91901,-0.89439 1.96931,-2.24829 1.07492,-1.40314 1.37852,-2.11701 0.22155,-0.52515 0.28719,-0.7385 0.10667,-0.36924 0.22976,-0.36924 0.12308,0 0.57438,0.33642 0.18873,0.13949 0.20514,0.25437 0.0164,0.0985 -0.0738,0.34463 z"
           id="path432" /><path
           d="m 180.25623,138.47012 q -1.09133,2.02675 -1.63289,4.75917 0.22975,-0.40207 0.55797,-1.02568 0.041,-0.11488 0.13129,-0.11488 0.12308,0 0.12308,0.1559 0,0.0492 -0.0246,0.10667 -0.52515,1.198 -0.68926,1.84623 -0.0985,0.41028 -0.26257,0.41028 -0.16411,0 -0.64003,-0.32001 -0.25437,-0.18053 -0.17231,-0.64003 0.34463,-1.78879 0.82875,-3.10987 -1.58366,2.57651 -2.65857,3.79913 -0.23796,0.27078 -0.51695,0.27078 -0.22975,0 -0.54156,-0.18873 -0.56618,-0.0985 -0.56618,-0.59079 0,-0.0903 0.0164,-0.19693 0.20513,-2.34677 0.85336,-3.8976 -0.13949,0.13129 -0.41847,0.38566 -0.10668,0.0903 -0.16411,0.0492 -0.0657,-0.0492 0.0246,-0.18873 0.4431,-0.64823 0.52515,-0.85336 0.25437,-0.64003 0.53336,-0.99287 0.1477,-0.18052 0.31181,-0.18052 0.22154,0 0.64823,0.26258 0.11487,0.0738 0.11487,0.1477 0,0 -0.18052,0.27078 -0.41027,0.62361 -0.86978,2.19906 -0.50053,1.70674 -0.50873,2.78166 0,0.35283 0.14769,0.35283 0.13129,0 0.42669,-0.3036 0.63182,-0.67285 1.82982,-2.5437 1.0585,-1.6493 1.28005,-2.14983 0.36925,-0.83696 0.599,-0.98465 0.1477,-0.0985 0.26257,-0.0985 0.11488,0 0.4431,0.17231 0.32822,0.17232 0.32822,0.25437 0,0.0246 -0.0574,0.0657 -0.0574,0.041 -0.0821,0.0903 z"
           id="path434" /><path
           d="m 190.33501,141.80154 q -0.53335,0.79593 -1.59186,2.80627 -0.0985,0.18052 -0.12308,0.18872 -0.0738,0.041 -0.34463,-0.041 -0.56618,-0.17232 -0.56618,-0.32822 0,-0.0903 0.0738,-0.26258 0.61541,-1.43595 1.0503,-3.06064 0.4431,-1.63289 0.42669,-2.50266 0,-0.2872 -0.20514,-0.2872 -0.13949,0 -0.32822,0.15591 -0.69746,0.56618 -1.8052,2.19906 -1.32929,1.96932 -1.87905,3.68426 -0.0574,0.19693 -0.0985,0.22155 -0.0492,0.0246 -0.23796,-0.041 -0.27898,-0.0985 -0.53335,-0.27899 -0.12309,-0.0903 -0.12309,-0.18872 0,-0.0164 0.12309,-0.32002 1.07491,-2.69139 1.07491,-5.21047 0,-0.25437 -0.1477,-0.25437 -0.10667,0 -0.27078,0.13949 -0.87798,0.7385 -1.9529,2.5437 -1.03389,1.72315 -1.54263,3.23295 -0.13128,0.38566 -0.27078,0.38566 -0.16411,0 -0.67285,-0.36924 -0.13128,-0.0739 -0.13128,-0.15591 0,-0.0903 0.18052,-0.27898 0.33642,-0.71388 0.76311,-2.46164 0.48412,-1.99393 0.41847,-2.89654 -0.12308,0.12309 -0.41847,0.41028 -0.2954,0.27898 -0.4431,0.42668 -0.10667,0.10667 -0.18873,0.10667 -0.12308,0 -0.12308,-0.16411 0,-0.13128 0.0903,-0.22975 0.45951,-0.47592 0.91081,-1.12415 0.16411,-0.22975 0.28719,-0.22975 0.0903,0 0.35284,0.26257 0.20513,0.0738 0.41027,0.1477 0.17231,0.0821 0.17231,0.3036 0,0.0656 -0.0164,0.1395 -0.20513,1.58365 -0.63182,2.95397 1.45237,-2.60934 2.6996,-3.70888 0.17232,-0.1559 0.33643,-0.1559 0.17231,0 0.52515,0.22155 0.33642,0.1477 0.44309,0.26257 0.12308,0.1477 0.12308,0.45951 0,1.67392 -0.38565,2.97858 1.60006,-2.53549 2.91294,-3.76631 0.17231,-0.1641 0.36104,-0.1641 0.24616,0 0.6072,0.32821 0.64003,0.0985 0.60721,0.77952 -0.0985,1.97752 -0.85337,3.82375 0.41027,-0.48412 0.64003,-0.83696 0.10667,-0.17231 0.24616,-0.17231 0.12308,0 0.12308,0.13129 0,0.082 -0.0738,0.19693 z"
           id="path436" /><path
           d="m 194.79305,137.8465 q 0,0.36925 -0.19693,1.18159 -0.0739,0.27899 -0.16411,0.36104 -0.041,0.041 -0.27898,0.12308 -0.3036,0.11488 -0.37745,0.11488 -0.12309,0 -0.12309,-0.16411 0,-0.0903 0.0328,-0.23796 0.19693,-0.81234 0.14769,-1.12415 -0.041,-0.32001 0.18873,-0.40207 0.40207,-0.20513 0.51694,-0.20513 0.25437,0 0.25437,0.35283 z m -1.31287,4.70994 q 0.0246,0.98466 -1.09133,1.3457 -0.13949,0.34463 -0.26257,0.47592 -0.18873,0.19693 -0.55797,0.22975 -0.23796,0.0164 -0.50874,-0.0246 -0.48413,-0.0738 -1.1898,-0.18052 -0.19693,-0.0328 -0.23796,-0.23796 0.0328,-0.22154 0.45951,-0.26257 0.58259,-0.041 1.72315,-0.20514 0.42668,-0.0985 0.6072,-0.48412 0.10667,-0.19693 0.10667,-0.48412 0,-0.51695 -0.51694,-1.82162 -0.50874,-1.27185 -0.47592,-1.69853 0.0657,-1.02568 1.89547,-1.42775 0.18052,-0.041 0.18052,0.13129 0,0.0985 -0.13129,0.1559 -0.88619,0.38566 -0.88619,0.95183 0,0.22155 0.0821,0.55798 0.0821,0.32821 0.49233,1.59186 0.3036,0.9108 0.31181,1.38672 z"
           id="path438" /><path
           d="m 200.44089,138.95424 q -0.7549,2.09239 -1.04209,3.51194 0.12308,-0.11488 0.32001,-0.35283 0.20514,-0.23796 0.25437,-0.27899 0.11487,-0.1477 0.24616,-0.1477 0.12308,0 0.12308,0.12308 0,0.0738 -0.0656,0.17232 -0.77131,1.14056 -1.02568,2.30574 -0.0739,0.32821 -0.22155,0.32821 -0.13949,0 -0.51695,-0.26257 -0.22154,-0.1477 -0.25436,-0.24617 -0.041,-0.0903 0,-0.36104 0.34462,-2.08418 0.86157,-3.4627 -0.71388,1.15697 -1.9447,2.5601 -1.07491,1.22262 -1.55083,1.55904 -0.34463,0.23796 -0.52515,0.23796 -0.1477,0 -0.4513,-0.23796 -0.43489,-0.26257 -0.43489,-0.72208 0,-0.0903 0.0164,-0.20514 0.1477,-1.21441 1.06671,-2.82268 0.91901,-1.61647 2.10881,-2.72421 0.38565,-0.36104 0.68926,-0.35284 0.29539,0.0164 1.12415,0.77952 0.0738,0.0656 0.0738,0.13949 0,0.13129 -0.17231,0.13129 -0.0656,0 -0.12308,-0.0246 -0.58259,-0.24617 -0.93543,0.0164 -0.77131,0.56617 -1.70673,1.99393 -1.08313,1.64109 -1.30467,2.95396 -0.008,0.0574 -0.008,0.10667 0,0.20514 0.16411,0.20514 0.27899,0 0.66464,-0.38566 0.91902,-0.89439 1.96932,-2.24829 1.07491,-1.40314 1.37852,-2.11701 0.22154,-0.52515 0.28719,-0.7385 0.10667,-0.36924 0.22975,-0.36924 0.12308,0 0.57438,0.33642 0.18873,0.13949 0.20514,0.25437 0.0164,0.0985 -0.0738,0.34463 z m 0.65644,-4.06171 q 0.0328,0.30361 -0.27078,1.07492 -0.27899,0.71388 -0.40207,0.71388 -0.0246,0 -0.0492,-0.008 -0.2872,-0.17231 -0.32002,-0.36925 0,-0.0985 0.0492,-0.0985 0.27898,-0.72208 0.38565,-1.63289 0.008,-0.1477 0.10667,-0.32001 0.041,-0.008 0.38566,0.36924 0.0985,0.11488 0.11488,0.27078 z m -1.74777,0 q 0.0246,0.33643 -0.27078,1.09133 -0.27078,0.70567 -0.39386,0.70567 -0.0985,0 -0.22975,-0.13949 -0.13129,-0.1477 -0.1477,-0.24617 0,-0.10667 0.0492,-0.082 0.25437,-0.67285 0.36925,-1.63289 0.0164,-0.1559 0.12308,-0.33642 0.041,-0.008 0.38566,0.36924 0.0903,0.0985 0.11487,0.27078 z"
           id="path440" /><path
           d="m 207.23749,138.47012 q -1.09133,2.02675 -1.63289,4.75917 0.22975,-0.40207 0.55797,-1.02568 0.041,-0.11488 0.13129,-0.11488 0.12308,0 0.12308,0.1559 0,0.0492 -0.0246,0.10667 -0.52515,1.198 -0.68926,1.84623 -0.0985,0.41028 -0.26258,0.41028 -0.16411,0 -0.64002,-0.32001 -0.25437,-0.18053 -0.17232,-0.64003 0.34463,-1.78879 0.82875,-3.10987 -1.58365,2.57651 -2.65857,3.79913 -0.23796,0.27078 -0.51694,0.27078 -0.22976,0 -0.54156,-0.18873 -0.56618,-0.0985 -0.56618,-0.59079 0,-0.0903 0.0164,-0.19693 0.20514,-2.34677 0.85337,-3.8976 -0.13949,0.13129 -0.41848,0.38566 -0.10667,0.0903 -0.16411,0.0492 -0.0656,-0.0492 0.0246,-0.18873 0.44309,-0.64823 0.52515,-0.85336 0.25437,-0.64003 0.53335,-0.99287 0.1477,-0.18052 0.31181,-0.18052 0.22155,0 0.64823,0.26258 0.11488,0.0738 0.11488,0.1477 0,0 -0.18052,0.27078 -0.41028,0.62361 -0.86978,2.19906 -0.50054,1.70674 -0.50874,2.78166 0,0.35283 0.1477,0.35283 0.13129,0 0.42668,-0.3036 0.63182,-0.67285 1.82982,-2.5437 1.05851,-1.6493 1.28005,-2.14983 0.36925,-0.83696 0.599,-0.98465 0.1477,-0.0985 0.26258,-0.0985 0.11488,0 0.44309,0.17231 0.32822,0.17232 0.32822,0.25437 0,0.0246 -0.0574,0.0657 -0.0574,0.041 -0.082,0.0903 z"
           id="path442" /><path
           d="m 214.24743,132.10267 q 0.12308,0.0903 0.12308,0.19694 0,0.1641 -0.20513,0.1641 -0.0903,0 -0.17232,-0.041 -0.46771,-0.25437 -0.82875,-0.25437 -0.27078,0 -0.48412,0.13129 -0.82055,0.52515 -2.60114,5.48125 1.32929,0.20514 1.68212,0.20514 0.18873,0 0.18873,0.13949 0,0.1559 -0.18873,0.19693 -0.96004,0.18052 -1.9529,0.22975 -1.12415,3.32322 -1.75597,6.17872 -0.50874,2.30574 -0.50874,3.29039 0,0.0821 0.0246,0.24617 0.0246,0.17231 0.0246,0.26257 0,0.13129 -0.0903,0.13129 -0.12309,0 -0.58259,-0.27899 -0.54977,-0.32001 -0.47592,-0.7549 0.68926,-3.64323 2.42061,-9.05884 -0.64002,0.041 -0.77131,0.0328 -0.17231,-0.0246 -0.23796,-0.16411 -0.0903,-0.22155 -0.0903,-0.24617 0,-0.12308 0.26258,-0.18872 0.37745,-0.0903 0.7549,-0.17232 0.34463,-0.0985 0.40207,-0.27078 1.32108,-3.82375 2.07598,-5.21868 0.62362,-1.14876 1.18979,-1.14876 0.54156,0 1.797,0.9108 z"
           id="path444" /><path
           d="m 215.43969,142.08052 q -1.99393,2.5519 -2.80627,2.5519 -0.38565,0 -0.97645,-0.53335 -0.61541,-0.28719 -0.61541,-0.77131 0,-0.0903 0.0164,-0.18873 0.1477,-1.12415 0.599,-2.48626 -0.3036,-0.1559 -0.3036,-0.29539 0,-0.11488 0.17232,-0.11488 0.13128,0 0.27078,0.0738 0.73028,-1.6411 1.31287,-2.33035 0.37745,-0.45951 0.68105,-0.45951 0.1395,0 0.68926,0.23796 -0.041,-0.24617 0.1395,-0.28719 0.008,0 0.38565,0 0.35284,0 0.35284,0.12308 0,0.0246 -0.0246,0.13949 -0.0246,0.11488 -0.0246,0.21334 0,0.2954 0.008,0.73029 0.008,0.43489 0.008,0.58259 0,1.01748 -0.55797,1.41954 -0.50874,0.36925 -1.14877,0.36925 -0.33642,0 -1.11594,-0.18052 -0.1395,0.25437 -0.31181,0.99286 -0.22975,0.93543 -0.21334,1.65751 0.008,0.42668 0.27078,0.42668 0.0985,0 0.25437,-0.0492 0.95183,-0.33643 2.65036,-2.05137 0.10667,-0.10667 0.21334,-0.10667 0.15591,0 0.15591,0.1477 0,0.0903 -0.0821,0.18872 z m -0.96004,-3.62681 q 0,-0.32002 -0.13949,-0.32002 -0.0903,0 -0.26257,0.13129 -0.80414,0.64823 -1.41134,2.27292 0.1641,0.0246 0.57438,0.0492 0.66464,0.0246 0.99286,-0.3036 0.24616,-0.24617 0.27078,-0.81235 -0.0246,0.41848 -0.0246,-1.01747 z"
           id="path446" /><path
           d="m 220.98906,138.24857 q 0,1.07492 -0.28719,2.05137 -0.0903,0.29539 -0.24616,0.29539 -0.11488,0 -0.50874,-0.32821 -0.19693,-0.16411 -0.0985,-0.46772 0.22976,-0.74669 0.22976,-1.19799 0,-0.15591 -0.0657,-0.15591 -0.0985,0 -0.32001,0.2954 -1.70674,2.22368 -2.5519,4.98892 -0.27078,0.87799 -0.45951,0.87799 -0.0738,0 -0.64823,-0.28719 -0.27899,-0.1395 -0.18873,-0.54156 0.64824,-2.8391 1.39493,-4.792 -0.6072,0.64003 -0.77131,0.87799 -0.0656,0.0985 -0.18052,0.0985 -0.13949,0 -0.13949,-0.12308 0,-0.0738 0.0656,-0.16411 0.40207,-0.48412 1.07492,-1.47698 0.20513,-0.36104 0.41027,-0.36104 0.1477,0 0.599,0.22975 0.25437,0.13129 0.082,0.35283 -0.18052,0.23796 -0.68105,1.68213 -0.47592,1.40313 -0.65644,2.19906 1.11595,-2.48626 2.53549,-4.38992 0.27078,-0.36104 0.43489,-0.36104 0.1477,0 0.40207,0.19693 0.34463,0.041 0.43489,0.10667 0.13949,0.0985 0.13949,0.39386 z"
           id="path448" /></g></g><g
       id="g4569"
       transform="matrix(1.3768337,0.27021514,-0.27021514,1.3768337,716.41757,-115.21743)"
       style="display:inline;stroke-width:0.712708;fill:#ffffff"><g
         style="stroke-width:0.712708;fill:#ffffff"
         id="g4561" /></g><g
       id="g1883"
       transform="matrix(0.26458333,0,0,0.26458333,397.14635,81.83019)"
       style="fill:#ffffff" /><g
       id="g1885"
       transform="matrix(0.26458333,0,0,0.26458333,397.14635,81.83019)"
       style="fill:#ffffff" /><g
       id="g1887"
       transform="matrix(0.26458333,0,0,0.26458333,397.14635,81.83019)"
       style="fill:#ffffff" /><g
       id="g1889"
       transform="matrix(0.26458333,0,0,0.26458333,397.14635,81.83019)"
       style="fill:#ffffff" /><g
       id="g1891"
       transform="matrix(0.26458333,0,0,0.26458333,397.14635,81.83019)"
       style="fill:#ffffff" /><g
       id="g1893"
       transform="matrix(0.26458333,0,0,0.26458333,397.14635,81.83019)"
       style="fill:#ffffff" /><g
       id="g1895"
       transform="matrix(0.26458333,0,0,0.26458333,397.14635,81.83019)"
       style="fill:#ffffff" /><g
       id="g1897"
       transform="matrix(0.26458333,0,0,0.26458333,397.14635,81.83019)"
       style="fill:#ffffff" /><g
       id="g1899"
       transform="matrix(0.26458333,0,0,0.26458333,397.14635,81.83019)"
       style="fill:#ffffff" /><g
       id="g1901"
       transform="matrix(0.26458333,0,0,0.26458333,397.14635,81.83019)"
       style="fill:#ffffff" /><g
       id="g1903"
       transform="matrix(0.26458333,0,0,0.26458333,397.14635,81.83019)"
       style="fill:#ffffff" /><g
       id="g1905"
       transform="matrix(0.26458333,0,0,0.26458333,397.14635,81.83019)"
       style="fill:#ffffff" /><g
       id="g1907"
       transform="matrix(0.26458333,0,0,0.26458333,397.14635,81.83019)"
       style="fill:#ffffff" /><g
       id="g1909"
       transform="matrix(0.26458333,0,0,0.26458333,397.14635,81.83019)"
       style="fill:#ffffff" /><g
       id="g1911"
       transform="matrix(0.26458333,0,0,0.26458333,397.14635,81.83019)"
       style="fill:#ffffff" /><g
       id="g2039"
       transform="matrix(0.05204385,0,0,0.05204385,659.35417,162.80101)"
       style="stroke-width:5.08385;fill:#ffffff" /><g
       id="g2041"
       transform="matrix(0.05204385,0,0,0.05204385,659.35417,162.80101)"
       style="stroke-width:5.08385;fill:#ffffff" /><g
       id="g2043"
       transform="matrix(0.05204385,0,0,0.05204385,659.35417,162.80101)"
       style="stroke-width:5.08385;fill:#ffffff" /><g
       id="g2045"
       transform="matrix(0.05204385,0,0,0.05204385,659.35417,162.80101)"
       style="stroke-width:5.08385;fill:#ffffff" /><g
       id="g2047"
       transform="matrix(0.05204385,0,0,0.05204385,659.35417,162.80101)"
       style="stroke-width:5.08385;fill:#ffffff" /><g
       id="g2049"
       transform="matrix(0.05204385,0,0,0.05204385,659.35417,162.80101)"
       style="stroke-width:5.08385;fill:#ffffff" /><g
       id="g2051"
       transform="matrix(0.05204385,0,0,0.05204385,659.35417,162.80101)"
       style="stroke-width:5.08385;fill:#ffffff" /><g
       id="g2053"
       transform="matrix(0.05204385,0,0,0.05204385,659.35417,162.80101)"
       style="stroke-width:5.08385;fill:#ffffff" /><g
       id="g2055"
       transform="matrix(0.05204385,0,0,0.05204385,659.35417,162.80101)"
       style="stroke-width:5.08385;fill:#ffffff" /><g
       id="g2057"
       transform="matrix(0.05204385,0,0,0.05204385,659.35417,162.80101)"
       style="stroke-width:5.08385;fill:#ffffff" /><g
       id="g2059"
       transform="matrix(0.05204385,0,0,0.05204385,659.35417,162.80101)"
       style="stroke-width:5.08385;fill:#ffffff" /><g
       id="g2061"
       transform="matrix(0.05204385,0,0,0.05204385,659.35417,162.80101)"
       style="stroke-width:5.08385;fill:#ffffff" /><g
       id="g2063"
       transform="matrix(0.05204385,0,0,0.05204385,659.35417,162.80101)"
       style="stroke-width:5.08385;fill:#ffffff" /><g
       id="g2065"
       transform="matrix(0.05204385,0,0,0.05204385,659.35417,162.80101)"
       style="stroke-width:5.08385;fill:#ffffff" /><g
       id="g2067"
       transform="matrix(0.05204385,0,0,0.05204385,659.35417,162.80101)"
       style="stroke-width:5.08385;fill:#ffffff" /></g></svg>
